# xmcd
#
# Track frame offsets:
#	150
#	12220
#	28007
#	44607
#	57380
#	70100
#	86445
#	102865
#	124590
#	139455
#	162085
#	175582
#	196930
#	215805
#	239172
#
# Disc length: 3604 seconds
#
# Revision: 1
# Processed by: cddbd v1.4PL0 Copyright (c) Steve Scherf et al.
# Submitted via: audiograbber 1.81.03
#
DISCID=d50e120f
DTITLE=Richard Frankland - Down Three Waterholes Road
DYEAR=1997
DGENRE=Country
TTITLE0=Way To Forget
TTITLE1=Dark Wind
TTITLE2=Dreamtime Dancer
TTITLE3=Malcolm Smith
TTITLE4=Yesterday's Dreaming
TTITLE5=Asunder (Sarah's Song)
TTITLE6=Long Tall Ships
TTITLE7=Mama
TTITLE8=Condah Mission
TTITLE9=Wa Warinor
TTITLE10=Two Lands
TTITLE11=Leroy Silver
TTITLE12=Red River Gums
TTITLE13=No Simple Man
TTITLE14=Message For Young and Old
EXTD=
EXTT0=
EXTT1=
EXTT2=
EXTT3=
EXTT4=
EXTT5=
EXTT6=
EXTT7=
EXTT8=
EXTT9=
EXTT10=
EXTT11=
EXTT12=
EXTT13=
EXTT14=
PLAYORDER=
